<svg width="185" height="33" viewBox="0 0 185 33" fill="none" xmlns="http://www.w3.org/2000/svg">
<path d="M28.9304 12.8427H20.4321C20.3718 12.1395 20.2111 11.5016 19.9499 10.9291C19.6988 10.3565 19.3472 9.86426 18.8951 9.4524C18.4531 9.0305 17.9157 8.70905 17.2829 8.48806C16.65 8.25702 15.9318 8.1415 15.1282 8.1415C13.7218 8.1415 12.5315 8.48303 11.5571 9.16611C10.5927 9.84919 9.85942 10.8286 9.35716 12.1044C8.86494 13.3801 8.61884 14.912 8.61884 16.7001C8.61884 18.5886 8.86997 20.1707 9.37223 21.4464C9.88454 22.7122 10.6229 23.6665 11.5872 24.3093C12.5516 24.9422 13.7118 25.2586 15.0679 25.2586C15.8414 25.2586 16.5345 25.1632 17.1473 24.9723C17.76 24.7714 18.2924 24.4851 18.7445 24.1135C19.1965 23.7418 19.5632 23.2948 19.8444 22.7724C20.1357 22.24 20.3316 21.6423 20.4321 20.9793L28.9304 21.0396C28.8299 22.3455 28.4633 23.6765 27.8304 25.0326C27.1975 26.3787 26.2985 27.6243 25.1332 28.7694C23.978 29.9046 22.5466 30.8187 20.8389 31.5118C19.1312 32.2049 17.1473 32.5515 14.8871 32.5515C12.0543 32.5515 9.51286 31.9437 7.26273 30.7283C5.02263 29.5128 3.24964 27.7247 1.94376 25.3641C0.647919 23.0035 0 20.1154 0 16.7001C0 13.2646 0.662987 10.3715 1.98896 8.02095C3.31494 5.66032 5.10299 3.87728 7.35313 2.67185C9.60327 1.45637 12.1146 0.848633 14.8871 0.848633C16.8359 0.848633 18.6289 1.11483 20.2663 1.64723C21.9037 2.17963 23.3402 2.95814 24.5757 3.98275C25.8113 4.99733 26.8058 6.24796 27.5592 7.73466C28.3126 9.22136 28.7696 10.924 28.9304 12.8427Z" fill="black"/>
<path d="M71.8992 32.5563L62.7982 1.69724H72.1403L76.3593 20.6828H76.6004L81.6029 1.69724H88.956L93.9586 20.7431H94.1997L98.4187 1.69724H107.761L98.6598 32.5563H90.6436L85.4 15.3186H85.1589L79.9153 32.5563H71.8992Z" fill="black"/>
<path d="M146.812 32.5563V1.69724H155.19V14.1735H155.612L164.893 1.69724H174.657L164.23 15.4392L174.898 32.5563H164.893L157.962 20.9841L155.19 24.6004V32.5563H146.812Z" fill="black"/>
<path d="M30.5504 32.0934V13.578H38.5425C39.9166 13.578 41.1191 13.8281 42.1497 14.3284C43.1804 14.8286 43.982 15.5489 44.5545 16.4891C45.1271 17.4293 45.4134 18.5564 45.4134 19.8703C45.4134 21.1963 45.1181 22.3143 44.5274 23.2244C43.9428 24.1345 43.1201 24.8216 42.0593 25.2857C41.0046 25.7498 39.772 25.9819 38.3616 25.9819H33.5881V22.0763H37.3491C37.9397 22.0763 38.443 22.0039 38.8589 21.8593C39.2808 21.7086 39.6032 21.4705 39.8262 21.1451C40.0553 20.8196 40.1698 20.3947 40.1698 19.8703C40.1698 19.3399 40.0553 18.909 39.8262 18.5775C39.6032 18.24 39.2808 17.9929 38.8589 17.8362C38.443 17.6734 37.9397 17.5921 37.3491 17.5921H35.5771V32.0934H30.5504ZM41.3993 23.5951L46.0282 32.0934H40.5676L36.0472 23.5951H41.3993Z" fill="black"/>
<path d="M47.5561 32.0934V13.578H60.9002V17.6282H52.5827V20.8106H60.2131V24.8608H52.5827V28.0432H60.864V32.0934H47.5561Z" fill="black"/>
<path d="M127.482 11.2081C127.482 13.2694 127.081 15.0082 126.279 16.4246C125.478 17.835 124.396 18.9048 123.034 19.6341C121.671 20.3573 120.153 20.7189 118.477 20.7189C116.789 20.7189 115.265 20.3543 113.902 19.625C112.546 18.8897 111.467 17.8169 110.666 16.4065C109.87 14.9901 109.472 13.2573 109.472 11.2081C109.472 9.1468 109.87 7.41098 110.666 6.00063C111.467 4.58424 112.546 3.51442 113.902 2.79116C115.265 2.06188 116.789 1.69724 118.477 1.69724C120.153 1.69724 121.671 2.06188 123.034 2.79116C124.396 3.51442 125.478 4.58424 126.279 6.00063C127.081 7.41098 127.482 9.1468 127.482 11.2081ZM122.31 11.2081C122.31 10.0991 122.163 9.16488 121.867 8.40546C121.578 7.64001 121.147 7.06141 120.574 6.66964C120.008 6.27185 119.309 6.07295 118.477 6.07295C117.645 6.07295 116.943 6.27185 116.371 6.66964C115.804 7.06141 115.373 7.64001 115.078 8.40546C114.788 9.16488 114.644 10.0991 114.644 11.2081C114.644 12.3171 114.788 13.2543 115.078 14.0198C115.373 14.7792 115.804 15.3578 116.371 15.7556C116.943 16.1473 117.645 16.3432 118.477 16.3432C119.309 16.3432 120.008 16.1473 120.574 15.7556C121.147 15.3578 121.578 14.7792 121.867 14.0198C122.163 13.2543 122.31 12.3171 122.31 11.2081Z" fill="black"/>
<path d="M129.807 20.4658V1.95038H137.799C139.174 1.95038 140.376 2.2005 141.407 2.70076C142.437 3.20101 143.239 3.92126 143.811 4.86149C144.384 5.80173 144.67 6.92881 144.67 8.24273C144.67 9.5687 144.375 10.6867 143.784 11.5968C143.2 12.5069 142.377 13.194 141.316 13.6581C140.261 14.1222 139.029 14.3543 137.619 14.3543H132.845V10.4487H136.606C137.197 10.4487 137.7 10.3763 138.116 10.2317C138.538 10.081 138.86 9.84294 139.083 9.51747C139.312 9.19201 139.427 8.76709 139.427 8.24273C139.427 7.71234 139.312 7.2814 139.083 6.9499C138.86 6.61238 138.538 6.36527 138.116 6.20856C137.7 6.04583 137.197 5.96446 136.606 5.96446H134.834V20.4658H129.807ZM140.656 11.9675L145.285 20.4658H139.824L135.304 11.9675H140.656Z" fill="black"/>
<path fill-rule="evenodd" clip-rule="evenodd" d="M42.0069 11.0321C44.5846 11.0321 46.6743 8.94243 46.6743 6.36468C46.6743 3.78693 44.5846 1.69725 42.0069 1.69725C39.4291 1.69725 37.3395 3.78693 37.3395 6.36468C37.3395 8.94243 39.4291 11.0321 42.0069 11.0321ZM42.0069 12.7294C45.522 12.7294 48.3716 9.87979 48.3716 6.36468C48.3716 2.84956 45.522 0 42.0069 0C38.4918 0 35.6422 2.84956 35.6422 6.36468C35.6422 9.87979 38.4918 12.7294 42.0069 12.7294Z" fill="#FDA228"/>
<path fill-rule="evenodd" clip-rule="evenodd" d="M48.7959 11.0321C51.3736 11.0321 53.4633 8.94243 53.4633 6.36468C53.4633 3.78693 51.3736 1.69725 48.7959 1.69725C46.2181 1.69725 44.1284 3.78693 44.1284 6.36468C44.1284 8.94243 46.2181 11.0321 48.7959 11.0321ZM48.7959 12.7294C52.311 12.7294 55.1605 9.87979 55.1605 6.36468C55.1605 2.84956 52.311 0 48.7959 0C45.2807 0 42.4312 2.84956 42.4312 6.36468C42.4312 9.87979 45.2807 12.7294 48.7959 12.7294Z" fill="#FDA228"/>
<path fill-rule="evenodd" clip-rule="evenodd" d="M140.872 25.4587H107.775C106.369 25.4587 105.229 26.5985 105.229 28.0046C105.229 29.4106 106.369 30.5505 107.775 30.5505H140.872C142.278 30.5505 143.417 29.4106 143.417 28.0046C143.417 26.5985 142.278 25.4587 140.872 25.4587ZM107.775 23.7615C105.432 23.7615 103.532 25.6612 103.532 28.0046C103.532 30.348 105.432 32.2477 107.775 32.2477H140.872C143.215 32.2477 145.115 30.348 145.115 28.0046C145.115 25.6612 143.215 23.7615 140.872 23.7615H107.775Z" fill="#1DAAFC"/>
<path d="M185 28.0046C185 30.348 183.1 32.2477 180.757 32.2477C178.414 32.2477 176.514 30.348 176.514 28.0046C176.514 25.6612 178.414 23.7615 180.757 23.7615C183.1 23.7615 185 25.6612 185 28.0046Z" fill="#FC3E6B"/>
</svg>
