<svg width="50" height="50" viewBox="0 0 50 50" fill="none" xmlns="http://www.w3.org/2000/svg">
<path d="M17.7381 17.2276C17.5916 17.0598 17.3928 16.9657 17.1853 16.9657C16.9781 16.9657 16.7793 17.0598 16.6328 17.2276L11.1642 23.4776C11.0174 23.645 10.9351 23.8722 10.9351 24.1094C10.9351 24.3461 11.0174 24.5733 11.1642 24.7407L16.6328 30.9907C16.938 31.3399 17.4329 31.3399 17.7381 30.9907C18.0433 30.642 18.0433 30.0764 17.7381 29.7276L12.8243 24.107L17.7381 18.4863C18.0412 18.1384 18.0412 17.5755 17.7381 17.2276L17.7381 17.2276Z" fill="#FC3E6B"/>
<path d="M29.2299 13.4735C29.0409 13.3754 28.8254 13.3674 28.6311 13.4512C28.4368 13.5349 28.2799 13.7035 28.1948 13.9199L20.3824 33.5628C20.2865 33.7796 20.2722 34.0323 20.343 34.2619C20.4138 34.4911 20.5634 34.6776 20.7573 34.7781C20.9509 34.8785 21.1724 34.8841 21.3701 34.7936C21.5675 34.7036 21.7245 34.525 21.804 34.2994L29.6164 14.6565C29.7025 14.4409 29.7102 14.1953 29.6376 13.9733C29.5651 13.7513 29.4183 13.5715 29.2299 13.4735L29.2299 13.4735Z" fill="#FC3E6B"/>
<path d="M33.3627 17.2275C33.0575 16.8787 32.5626 16.8787 32.2575 17.2275C31.9519 17.5763 31.9519 18.1419 32.2575 18.4907L37.1751 24.1069L32.2613 29.7275C31.9561 30.0763 31.9561 30.6419 32.2613 30.9907C32.5665 31.3399 33.0614 31.3399 33.3666 30.9907L38.8352 24.7407C38.982 24.5733 39.0643 24.3461 39.0643 24.1093C39.0643 23.8721 38.982 23.6449 38.8352 23.4775L33.3627 17.2275Z" fill="#FC3E6B"/>
<path d="M47.6554 0H2.34371C1.7236 0.00597898 1.13069 0.289776 0.691952 0.790816C0.253549 1.29226 0.00523205 1.9699 0 2.67857V40.1786C0.00523151 40.8873 0.253549 41.5649 0.691952 42.0663C1.1307 42.5674 1.72363 42.8512 2.34371 42.8571H24.2183V48.2143H12.1096C11.6782 48.2143 11.3284 48.6141 11.3284 49.1071C11.3284 49.6002 11.6782 50 12.1096 50H37.8904C38.3218 50 38.6716 49.6002 38.6716 49.1071C38.6716 48.6141 38.3218 48.2143 37.8904 48.2143H25.7817V42.8571H47.6563C48.2764 42.8512 48.8693 42.5674 49.3081 42.0663C49.7465 41.5649 49.9948 40.8872 50 40.1786V2.67857C49.9948 1.96987 49.7465 1.29224 49.3081 0.790816C48.8693 0.289776 48.2764 0.00597959 47.6563 0H47.6554ZM2.34371 1.78571H47.6554C47.8626 1.78571 48.0614 1.87978 48.2078 2.04719C48.3543 2.2146 48.4366 2.44181 48.4366 2.67857V7.14286H1.56247V2.67857C1.56247 2.18551 1.91229 1.78571 2.34371 1.78571ZM47.6554 41.0714H2.34371C1.91229 41.0714 1.56247 40.6716 1.56247 40.1786V8.92857H48.4366V40.1786C48.4366 40.4153 48.3543 40.6425 48.2078 40.81C48.0614 40.9774 47.8626 41.0714 47.6554 41.0714Z" fill="black"/>
<path d="M46.093 4.46427C46.093 4.95733 45.7432 5.35713 45.3118 5.35713C44.8803 5.35713 44.5305 4.95733 44.5305 4.46427C44.5305 3.97121 44.8803 3.57141 45.3118 3.57141C45.7432 3.57141 46.093 3.97121 46.093 4.46427Z" fill="black"/>
<path d="M42.968 4.46427C42.968 4.95733 42.6182 5.35713 42.1868 5.35713C41.7553 5.35713 41.4055 4.95733 41.4055 4.46427C41.4055 3.97121 41.7553 3.57141 42.1868 3.57141C42.6182 3.57141 42.968 3.97121 42.968 4.46427Z" fill="black"/>
<path d="M39.843 4.46427C39.843 4.95733 39.4932 5.35713 39.0618 5.35713C38.6303 5.35713 38.2805 4.95733 38.2805 4.46427C38.2805 3.97121 38.6303 3.57141 39.0618 3.57141C39.4932 3.57141 39.843 3.97121 39.843 4.46427Z" fill="black"/>
</svg>
