<svg width="51" height="50" viewBox="0 0 51 50" fill="none" xmlns="http://www.w3.org/2000/svg">
<path d="M41.0837 8.33325C40.5781 8.33325 40.1224 8.63794 39.929 9.10483C39.7355 9.57209 39.8423 10.1097 40.1998 10.4672C40.5573 10.8247 41.0949 10.9315 41.5622 10.7381C42.0291 10.5446 42.3337 10.0889 42.3337 9.58329C42.3337 8.89281 41.7742 8.33329 41.0838 8.33329L41.0837 8.33325Z" fill="#1DAAFC"/>
<path d="M44.5893 0.243866C44.2638 -0.0812886 43.7362 -0.0812886 43.4107 0.243866L36.744 6.91057C36.5878 7.06682 36.5 7.27888 36.5 7.49986V13.3332C36.5 13.5542 36.5878 13.7663 36.744 13.9225C36.9003 14.0788 37.1124 14.1666 37.3333 14.1666H43.1667C43.3876 14.1666 43.5997 14.0788 43.756 13.9225L50.4226 7.25582C50.7478 6.93029 50.7478 6.40276 50.4226 6.07724L44.5893 0.243866ZM42.8218 12.5001H38.1666V7.84496L44 2.01159L48.6551 6.66676L42.8218 12.5001Z" fill="#1DAAFC"/>
<path d="M1.49985 28.3334H3.99985V28.4402C4.00133 29.1682 4.24948 29.8747 4.70334 30.4439C5.15721 31.0135 5.79039 31.4127 6.49982 31.5768V39.1668C6.49982 39.3878 6.58762 39.5999 6.74387 39.7561C6.90011 39.9124 7.11217 40.0002 7.33315 40.0002H12.3332C12.5541 40.0002 12.7662 39.9124 12.9224 39.7561C13.0787 39.5999 13.1665 39.3878 13.1665 39.1668V35.8335H14.0065C14.6672 35.8316 15.3004 35.5686 15.7677 35.1013C16.2349 34.6341 16.4979 34.0008 16.4998 33.3402V31.5767C17.5642 31.3271 18.4295 30.5551 18.7982 29.5258L32.8287 35.7617C33.0865 35.8763 33.3845 35.8529 33.6211 35.6988C33.8577 35.5452 34.0002 35.2822 34.0002 35.0002V15C34.0002 14.7181 33.8577 14.455 33.6211 14.3014C33.3845 14.1474 33.0865 14.1239 32.8287 14.2385L18.7982 20.4745C18.5757 19.8495 18.1657 19.3085 17.6245 18.9253C17.0832 18.5421 16.4366 18.3353 15.7732 18.3334H7.22637C6.37108 18.3342 5.55075 18.6746 4.94589 19.2795C4.34098 19.8844 4.00058 20.7047 3.99984 21.56V21.6667H1.49984C1.03965 21.6667 0.666504 22.0399 0.666504 22.5001V27.5001C0.666504 27.7211 0.754302 27.9332 0.910552 28.0894C1.0668 28.2456 1.27886 28.3334 1.49984 28.3334L1.49985 28.3334ZM28.9998 17.7638L32.3332 16.2831V33.7185L28.9998 32.2378V17.7638ZM18.9998 22.2088L27.3332 18.5045V31.5008L18.9998 27.7924V22.2088ZM11.4998 35.0003V38.3337H8.16651V31.667H11.4998V35.0003ZM14.8332 33.3403C14.8328 33.7968 14.463 34.1666 14.0065 34.1669H13.1665V31.6669H14.8332V33.3403ZM5.66651 27.5003V21.5601C5.66689 21.1468 5.83132 20.7502 6.12373 20.4575C6.41651 20.165 6.81309 20.0006 7.2264 20.0002H15.7733C16.1866 20.0006 16.5832 20.165 16.8759 20.4575C17.1683 20.7502 17.3328 21.1468 17.3331 21.5601V28.4404C17.3328 28.8537 17.1683 29.2503 16.8759 29.543C16.5831 29.8355 16.1866 29.9999 15.7733 30.0003H7.2264C6.81308 29.9999 6.4165 29.8355 6.12373 29.543C5.83132 29.2503 5.66688 28.8537 5.66651 28.4404V27.5003ZM2.33318 23.3336H3.99985V26.6669H2.33318V23.3336Z" fill="black"/>
<path d="M42.1731 32.7686C41.8476 32.4435 41.32 32.4435 40.9949 32.7686L35.1013 38.6623C34.7761 38.9875 34.7761 39.515 35.1013 39.8405L43.3513 48.0906C43.6768 48.4157 44.2043 48.4157 44.5299 48.0906L50.4223 42.198C50.7475 41.8725 50.7475 41.345 50.4223 41.0198L42.1731 32.7686ZM47.6515 40.602L42.9491 40.2412L42.5875 35.5388L47.6515 40.602ZM43.9405 46.3204L36.8687 39.2505L40.891 35.2282L41.3419 41.0816L41.3423 41.0813C41.3735 41.4913 41.699 41.8172 42.1086 41.8488L47.9628 42.2989L43.9405 46.3204Z" fill="#1DAAFC"/>
<path d="M23.1665 15.8332C24.6178 15.8366 26.0178 15.2979 27.0921 14.3228C28.1669 13.3474 28.8384 12.0063 28.9757 10.5617C29.1126 9.11672 28.7052 7.67328 27.8332 6.51327L32.924 1.42248L31.7439 0.243896L26.6531 5.33326C25.152 4.20754 23.2011 3.8723 21.4105 4.43296C19.62 4.99323 18.2085 6.38088 17.617 8.16175C17.0259 9.94224 17.3272 11.8987 18.4269 13.4188C19.5266 14.9389 21.2903 15.8377 23.1665 15.8333L23.1665 15.8332ZM23.1665 5.83317C24.2715 5.83317 25.3313 6.27216 26.113 7.05337C26.8942 7.83499 27.3332 8.8949 27.3332 9.99986C27.3332 11.1048 26.8942 12.1646 26.113 12.9464C25.3314 13.7276 24.2715 14.1666 23.1665 14.1666C22.0616 14.1666 21.0018 13.7276 20.22 12.9464C19.4388 12.1647 18.9999 11.1048 18.9999 9.99986C19.0013 8.89529 19.4407 7.83614 20.2216 7.05489C21.0028 6.27401 22.062 5.83469 23.1665 5.83317V5.83317Z" fill="#1DAAFC"/>
<path d="M36.4999 29.1667H40.6665V30.0001C40.6665 30.2211 40.7543 30.4331 40.9106 30.5894C41.0668 30.7456 41.2789 30.8334 41.4999 30.8334H48.1665C48.3875 30.8334 48.5996 30.7456 48.7558 30.5894C48.9121 30.4331 48.9999 30.2211 48.9999 30.0001V25.8494C48.9976 25.1585 48.7819 24.4856 48.3819 23.9227C47.9816 23.3595 47.4173 22.9342 46.7658 22.7051C47.5385 22.1552 48.0404 21.3022 48.146 20.3594C48.2513 19.4167 47.95 18.4736 47.3175 17.7668C46.6855 17.0599 45.7818 16.6555 44.8331 16.6555C43.8845 16.6555 42.9809 17.0599 42.3488 17.7668C41.7163 18.4736 41.415 19.4167 41.5203 20.3594C41.6259 21.3022 42.1278 22.1552 42.9005 22.7051C42.3614 22.8974 41.8804 23.2252 41.5039 23.6567C41.2133 23.3219 40.8588 23.0488 40.4615 22.8528C41.037 22.4376 41.4094 21.7977 41.4853 21.092C41.5616 20.3866 41.3339 19.682 40.8599 19.1541C40.3856 18.6258 39.7097 18.3245 38.9998 18.3245C38.29 18.3245 37.614 18.6258 37.1398 19.1541C36.6658 19.682 36.4381 20.3866 36.5144 21.092C36.5903 21.7977 36.9627 22.4376 37.5382 22.8528C36.9787 23.1247 36.5066 23.5481 36.1758 24.0753C35.8447 24.602 35.6684 25.2115 35.6665 25.8335V28.3335C35.6665 28.5545 35.7543 28.7665 35.9106 28.9228C36.0668 29.079 36.2789 29.1668 36.4998 29.1668L36.4999 29.1667ZM44.8332 18.3333C45.2752 18.3333 45.6993 18.5089 46.0118 18.8214C46.3243 19.1339 46.4999 19.5581 46.4999 20C46.4999 20.442 46.3243 20.8661 46.0118 21.1786C45.6993 21.4911 45.2752 21.6667 44.8332 21.6667C44.3912 21.6667 43.9671 21.4911 43.6546 21.1786C43.3421 20.8661 43.1665 20.442 43.1665 20C43.1665 19.5581 43.3421 19.1339 43.6546 18.8214C43.9671 18.5089 44.3912 18.3333 44.8332 18.3333ZM42.3332 28.3334V25.8494C42.3339 25.4033 42.5114 24.9755 42.8269 24.6604C43.142 24.3449 43.5698 24.1675 44.0158 24.1667H45.6509H45.6505C46.0965 24.1675 46.5244 24.3449 46.8394 24.6604C47.1549 24.9755 47.3324 25.4034 47.3331 25.8494V29.1667H42.3331L42.3332 28.3334ZM38.9999 20C39.3369 20 39.6409 20.2031 39.7696 20.5145C39.8987 20.8259 39.8276 21.1842 39.5891 21.4226C39.3507 21.6611 38.9924 21.7322 38.681 21.6031C38.3696 21.4743 38.1665 21.1704 38.1665 20.8334C38.1665 20.3732 38.5397 20 38.9999 20ZM37.3332 25.8334C37.3332 25.2378 37.6509 24.6876 38.1665 24.3899C38.6822 24.0923 39.3176 24.0923 39.8332 24.3899C40.3488 24.6876 40.6665 25.2378 40.6665 25.8334V27.5001H37.3332V25.8334Z" fill="#1DAAFC"/>
<path d="M23.9997 34.1667H20.6664C20.4454 34.1667 20.2334 34.2545 20.0771 34.4108L15.0771 39.4108C14.752 39.7364 14.752 40.2639 15.0771 40.5894L24.2438 49.7561C24.5693 50.0813 25.0968 50.0813 25.4224 49.7561L32.089 43.0894C32.4142 42.7639 32.4142 42.2364 32.089 41.9108L24.589 34.4108C24.4328 34.2545 24.2207 34.1667 23.9997 34.1667ZM24.8331 47.9887L16.8446 40.0002L21.0113 35.8335H23.6545L30.3212 42.5002L24.8331 47.9887Z" fill="#1DAAFC"/>
<path d="M20.0779 41.0772L23.4112 37.7439L24.5898 38.9225L21.2565 42.2558L20.0779 41.0772Z" fill="#1DAAFC"/>
<path d="M22.5779 43.5772L25.9112 40.2439L27.0898 41.4225L23.7565 44.7558L22.5779 43.5772Z" fill="#1DAAFC"/>
</svg>
